<?xml version="1.0" encoding="utf-8"?>
<!-- Generator: Adobe Illustrator 18.0.0, SVG Export Plug-In . SVG Version: 6.00 Build 0)  -->
<!DOCTYPE svg PUBLIC "-//W3C//DTD SVG 1.1//EN" "http://www.w3.org/Graphics/SVG/1.1/DTD/svg11.dtd">
<svg version="1.1" id="Layer_1" xmlns="http://www.w3.org/2000/svg" xmlns:xlink="http://www.w3.org/1999/xlink" x="0px" y="0px"
	 viewBox="0 0 503.9 280.1" enable-background="new 0 0 503.9 280.1" xml:space="preserve">
<g>
	<path fill="#DDDDDD" d="M502.2,135.3C441.8,47.4,358.1,3,252,0c-21.7,0-43.1,2.2-64.1,7C108.8,25.2,46.8,68.3,1.6,135.7
		c-2,3-2.2,5.1-0.2,8.3c67.6,105,196.8,157.3,318.8,128.1c77.2-18.5,137.7-61.6,182-127.5C504.5,141.1,504.5,138.7,502.2,135.3z
		 M42.7,140c99-135.4,310.6-143.2,418.8-0.1C355.7,279.2,147.5,278.6,42.7,140z"/>
	<path fill="#DDDDDD" d="M252.2,69.6c-15.3,0-29.4,4.8-41,13.1c11.9,7.8,19.8,21.2,19.8,36.5c0,24-19.5,43.5-43.5,43.5
		c-0.7,0-1.5,0-2.2-0.1c9.4,27.8,35.7,47.9,66.7,47.9c38.7,0,70.3-31.5,70.4-70.1C322.5,101.4,291,69.7,252.2,69.6z"/>
</g>
</svg>
