<?xml version="1.0" encoding="utf-8"?>
<!-- Generator: Adobe Illustrator 18.0.0, SVG Export Plug-In . SVG Version: 6.00 Build 0)  -->
<!DOCTYPE svg PUBLIC "-//W3C//DTD SVG 1.1//EN" "http://www.w3.org/Graphics/SVG/1.1/DTD/svg11.dtd">
<svg version="1.1" id="Layer_1" xmlns="http://www.w3.org/2000/svg" xmlns:xlink="http://www.w3.org/1999/xlink" x="0px" y="0px"
	 viewBox="0 0 136.9 136.9" enable-background="new 0 0 136.9 136.9" xml:space="preserve">
<g>
	<polygon fill="#232323" points="49.1,29.5 24.9,68.1 38.5,68.1 49.1,50.3 59.7,68.1 73.3,68.1 	"/>
	<polygon fill="#232323" points="95.8,71.3 85.3,89.1 74.7,71.3 61,71.3 85.3,109.9 109.5,71.3 	"/>
	<path fill="#232323" d="M68.5,0C30.7,0,0,30.7,0,68.5s30.7,68.5,68.5,68.5c37.8,0,68.5-30.7,68.5-68.5C136.9,30.7,106.2,0,68.5,0z
		 M68.5,123.9C37.9,123.9,13,99,13,68.5S37.9,13,68.5,13c30.6,0,55.5,24.9,55.5,55.5S99,123.9,68.5,123.9z"/>
</g>
</svg>
